<?xml version="1.0" encoding="iso-8859-1"?>
<!-- Generator: Adobe Illustrator 19.0.0, SVG Export Plug-In . SVG Version: 6.00 Build 0)  -->
<svg version="1.1" id="Layer_1" xmlns="http://www.w3.org/2000/svg" xmlns:xlink="http://www.w3.org/1999/xlink" x="0px" y="0px"
	 viewBox="0 0 512.001 512.001" style="enable-background:new 0 0 512.001 512.001;" xml:space="preserve">
<g>
	<g>
		<path d="M432.34,47.174c-19.585-19.585-51.337-19.585-70.922,0l-32.49,32.489c26.886,21.13,55.627,39.959,85.861,55.984
			l17.551-17.551C451.925,98.512,451.925,66.759,432.34,47.174z"/>
	</g>
</g>
<g>
	<g>
		<path d="M181.001,227.593L14.689,393.905c-19.585,19.585-19.585,51.337,0,70.922s51.337,19.585,70.922,0l150.3-150.301
			C220.418,283.898,202.005,254.73,181.001,227.593z"/>
	</g>
</g>
<g>
	<g>
		<path d="M500.484,170.281c-79.091-25.884-149.578-66.436-210.169-123.609c-6.576-6.206-16.896-6.06-23.29,0.334l-94.901,94.901
			c-6.395,6.395-6.542,16.714-0.334,23.29c57.181,60.598,97.733,131.086,123.609,210.169c0.835,2.559,2.247,4.802,4.063,6.619
			c3.105,3.105,7.392,4.945,11.993,4.898c52.583-0.516,104.059-22.133,141.236-59.309c37.177-37.176,58.794-88.654,59.31-141.237
			C512.07,179.05,507.418,172.551,500.484,170.281z M408.754,283.634c-24.938,24.938-56.363,42.663-90.185,51.926
			c-4.111-10.44-8.455-20.791-13.151-30.999c29.922-7.343,57.797-22.669,79.695-44.567c21.899-21.898,37.225-49.771,44.567-79.696
			c10.207,4.697,20.558,9.041,30.999,13.153C451.416,227.272,433.691,258.698,408.754,283.634z"/>
	</g>
</g>
</svg>
