<?xml version="1.0" encoding="iso-8859-1"?>
<!-- Uploaded to: SVG Repo, www.svgrepo.com, Generator: SVG Repo Mixer Tools -->
<svg height="800px" width="800px" version="1.1" id="Capa_1" xmlns="http://www.w3.org/2000/svg" xmlns:xlink="http://www.w3.org/1999/xlink" 
	 viewBox="0 0 415.915 415.915" xml:space="preserve">
<g>
	<path style="fill:#010002;" d="M386.497,214.19c0-5.007-2-6.267-14.997-14.485L223.455,106.21
		c-8.535-5.397-22.516-5.406-31.092-0.008L44.358,199.713c-12.681,8.023-14.965,9.47-14.965,14.477
		c0,8.689,7.137,8.689,21.362,8.689h314.389C379.361,222.888,386.497,222.888,386.497,214.19z M63.85,206.63l137.186-86.667
		c3.316-2.097,10.421-2.105,13.721-0.008l137.251,86.675H63.85z"/>
	<path style="fill:#010002;" d="M407.786,244.42H84.253c-4.495,0-8.129,3.633-8.129,8.129s3.633,8.129,8.129,8.129h315.405V297.5
		h-383.4v-36.822h27.401c4.495,0,8.129-3.633,8.129-8.129s-3.633-8.129-8.129-8.129H8.129c-4.495,0-8.129,3.633-8.129,8.129v53.08
		c0,4.495,3.633,8.129,8.129,8.129h399.658c4.495,0,8.129-3.633,8.129-8.129v-53.08C415.915,248.054,412.281,244.42,407.786,244.42z
		"/>
	<circle style="fill:#010002;" cx="63.956" cy="279.097" r="9.364"/>
</g>
</svg>