<?xml version="1.0" encoding="iso-8859-1"?>
<!-- Uploaded to: SVG Repo, www.svgrepo.com, Generator: SVG Repo Mixer Tools -->
<svg fill="#000000" height="800px" width="800px" version="1.1" id="Layer_1" xmlns="http://www.w3.org/2000/svg" xmlns:xlink="http://www.w3.org/1999/xlink" 
	 viewBox="0 0 511.999 511.999" xml:space="preserve">
<path d="M506.724,237.025L266.678,20.78c-6.069-5.468-15.288-5.468-21.358,0L5.276,237.025c-6.547,5.898-7.073,15.986-1.175,22.533
	c5.898,6.545,15.986,7.072,22.532,1.174l69.081-62.231v199.318H65.773c-8.811,0-15.955,7.143-15.955,15.955
	c0,8.811,7.143,15.955,15.955,15.955c9.01,0,166.983,0,174.272,0v49.637c0,8.811,7.143,15.955,15.955,15.955
	c8.811,0,15.955-7.143,15.955-15.955v-49.637c7.538,0,165.774,0,174.272,0c8.811,0,15.955-7.143,15.955-15.955
	c0-8.811-7.143-15.955-15.955-15.955h-29.941V198.5l69.081,62.231c6.555,5.903,16.642,5.365,22.533-1.174
	C513.796,253.01,513.269,242.923,506.724,237.025z M384.376,397.818H127.623V169.755L255.999,54.108l128.376,115.647v228.063
	H384.376z"/>
<path d="M187.534,208.422c0,37.752,30.713,68.465,68.465,68.465s68.465-30.713,68.465-68.465s-30.713-68.466-68.465-68.466
	C218.248,139.956,187.534,170.67,187.534,208.422z M292.554,208.422c0,20.156-16.399,36.555-36.555,36.555
	c-20.157,0-36.555-16.399-36.555-36.555c0-20.157,16.398-36.556,36.555-36.556C276.155,171.866,292.554,188.265,292.554,208.422z"/>
<path d="M255.999,291.391c-25.003,0-45.344,20.341-45.344,45.343c0,25.003,20.341,45.344,45.344,45.344s45.344-20.341,45.344-45.344
	C301.343,311.732,281.002,291.391,255.999,291.391z M255.999,350.169c-7.408,0-13.435-6.027-13.435-13.435
	c0-7.407,6.027-13.434,13.435-13.434s13.435,6.027,13.435,13.434C269.434,344.142,263.407,350.169,255.999,350.169z"/>
</svg>