<svg height="200px" width="200px" version="1.1" id="_x32_" xmlns="http://www.w3.org/2000/svg" xmlns:xlink="http://www.w3.org/1999/xlink" viewBox="0 0 512 512" xml:space="preserve" fill="#000000" transform="matrix(-1, 0, 0, 1, 0, 0)"><g id="SVGRepo_bgCarrier" stroke-width="0"></g><g id="SVGRepo_tracerCarrier" stroke-linecap="round" stroke-linejoin="round"></g><g id="SVGRepo_iconCarrier"> <style type="text/css"> .st0{fill:#8a8a8a;} </style> <g> <path class="st0" d="M255.995,3.769C114.605,3.769,0,88.187,0,217.102c0,79.518,49.369,148.08,139.713,201.623l148.909,89.506 l1.677-82.807C422.615,418.055,512,340.045,512,217.102C512,88.187,397.386,3.769,255.995,3.769z M288.175,387.319l-35.31,1.966 l-0.717,35.366l-0.346,16.928l-92.635-55.686C78.876,338.313,38.161,281.519,38.161,217.102 c0-115.006,109.583-175.172,217.834-175.172s217.844,60.167,217.844,175.172C473.839,317.211,404.429,380.843,288.175,387.319z"></path> </g> </g></svg>