<?xml version="1.0" encoding="UTF-8" standalone="no"?> <svg xmlns="http://www.w3.org/2000/svg" viewBox="0 0 32 32"><defs><style>.cls-1{fill:#231f20;}</style></defs><title>Magnifier, search, zoom</title><g id="Layer_4" data-name="Layer 4"><path class="cls-1" d="M11,21a9,9,0,1,1,9-9A9,9,0,0,1,11,21ZM11,5a7,7,0,1,0,7,7A7,7,0,0,0,11,5Z"/><path class="cls-1" d="M25.21,29.71a3.49,3.49,0,0,1-2.48-1l-5.2-5.21a1,1,0,0,1,0-1.41l3.53-3.53a1,1,0,0,1,1.41,0l5.21,5.2a3.49,3.49,0,0,1,0,4.95h0A3.48,3.48,0,0,1,25.21,29.71Zm-5.56-6.94,4.5,4.5a1.54,1.54,0,0,0,2.12,0h0a1.52,1.52,0,0,0,.44-1.06,1.5,1.5,0,0,0-.44-1.06l-4.5-4.5Z"/><path class="cls-1" d="M20,22a1,1,0,0,1-.71-.29L16,18.36A1,1,0,0,1,17.36,17l3.35,3.34a1,1,0,0,1,0,1.42A1,1,0,0,1,20,22Z"/><path class="cls-1" d="M16,13a1,1,0,0,1-1-1,4,4,0,0,0-4-4,1,1,0,0,1,0-2,6,6,0,0,1,6,6A1,1,0,0,1,16,13Z"/></g></svg>