<?xml version="1.0" encoding="iso-8859-1"?>
<!-- Uploaded to: SVG Repo, www.svgrepo.com, Generator: SVG Repo Mixer Tools -->
<!DOCTYPE svg PUBLIC "-//W3C//DTD SVG 1.1//EN" "http://www.w3.org/Graphics/SVG/1.1/DTD/svg11.dtd">
<svg fill="#000000" height="800px" width="800px" version="1.1" id="Capa_1" xmlns="http://www.w3.org/2000/svg" xmlns:xlink="http://www.w3.org/1999/xlink" 
	 viewBox="0 0 297.669 297.669" xml:space="preserve">
<g>
	<path d="M0,72.335c0,5.247,4.253,9.5,9.5,9.5h93.169h48.5c5.247,0,9.5-4.253,9.5-9.5V9.668c0-5.247-4.253-9.5-9.5-9.5h-48.5l0,0
		H9.5c-3.479,0-6.511,1.875-8.167,4.664C0.492,6.25,0,7.9,0,9.668L0,72.335z M135.67,25.168v31.667h-33V25.168H135.67z"/>
	<path d="M288.169,215.835l-278.669,0c-5.247,0-9.5,4.253-9.5,9.5v62.667c0,3.607,2.01,6.745,4.972,8.353
		c1.346,0.731,2.889,1.147,4.528,1.147h178.208v0h100.461c5.247,0,9.5-4.253,9.5-9.5v-62.667
		C297.669,220.088,293.416,215.835,288.169,215.835z M272.669,272.501h-84.961v-31.667l84.961,0V272.501z"/>
	<path d="M9.5,108.001c-5.247,0-9.5,4.253-9.5,9.5v0v62.667v0c0,1.312,0.266,2.561,0.747,3.698c0.24,0.568,0.534,1.108,0.876,1.614
		c1.707,2.527,4.598,4.189,7.878,4.189l234.669,0c5.247,0,9.5-4.253,9.5-9.5v-62.667c0-5.247-4.253-9.5-9.5-9.5H9.5z
		 M228.669,133.001v31.667h-77v-31.667H228.669z"/>
</g>
</svg>