<?xml version="1.0" encoding="iso-8859-1"?>
<!-- Uploaded to: SVG Repo, www.svgrepo.com, Generator: SVG Repo Mixer Tools -->
<!DOCTYPE svg PUBLIC "-//W3C//DTD SVG 1.1//EN" "http://www.w3.org/Graphics/SVG/1.1/DTD/svg11.dtd">
<svg fill="#000000" version="1.1" id="Capa_1" xmlns="http://www.w3.org/2000/svg" xmlns:xlink="http://www.w3.org/1999/xlink" 
	 width="800px" height="800px" viewBox="0 0 83.684 83.684" 
	 xml:space="preserve">
<g>
	<g>
		<path fill="rgb(236, 72, 135)" d="M76.79,22.845c-6.4,0-11.59-9.013-11.59-15.415c0,6.402-5.189,15.415-11.59,15.415c-2.587,0-4.967-0.858-6.894-2.289
			c0,0,5.282,32.338,18.483,32.338c13.2,0,18.483-32.338,18.483-32.338C81.756,21.987,79.377,22.845,76.79,22.845z M65.2,46.146
			L47.907,22.611l16.234,18.972L65.2,11.67l1.061,29.911l16.232-18.972L65.2,46.146z"/>
		<path fill="rgb(236, 72, 135)" d="M18.484,30.789c0,6.402-5.188,15.415-11.59,15.415c-2.585,0-4.966-0.857-6.894-2.29c0,0,5.282,32.339,18.484,32.339
			s18.483-32.339,18.483-32.339c-1.928,1.433-4.308,2.29-6.894,2.29C23.672,46.204,18.484,37.188,18.484,30.789z M18.484,69.503
			L1.194,45.97l16.231,18.972l1.059-29.913l1.056,29.913L35.773,45.97L18.484,69.503z"/>
	</g>
</g>
</svg>