<?xml version="1.0" encoding="UTF-8" standalone="no"?> <svg xmlns="http://www.w3.org/2000/svg" xmlns:xlink="http://www.w3.org/1999/xlink" viewBox="0 0 64 64"><defs><style>.cls-1{fill:url(#linear-gradient);}</style><linearGradient id="linear-gradient" x1="7.73" y1="32.01" x2="56.26" y2="32.01" gradientUnits="userSpaceOnUse"><stop offset="0" stop-color="#17a6d7"/><stop offset="1" stop-color="#9d31fe"/></linearGradient></defs><g id="Layer_5" data-name="Layer 5"><path class="cls-1" d="M50.31,30.48c.27-2.44,1.32-8.23,5.24-9.4A1,1,0,1,0,55,19.17c-3.57,1.06-6,5.11-6.66,11.09C47.24,42,62.76,47.36,47.48,57.13c2.53-4,.29-15.81-.63-17.7-1.35-4.55-3-7.73-6.51-9.84a32,32,0,0,1-4.82-3.83c-4.46-4.36-4-4.73-5.63-9.19-1.06-2.69-1.29-5.67-3.65-7.74a7.82,7.82,0,0,0-3.31-1.68C21.85,3.71,17,.52,16.88,5.74c0,2.06-.82,3.92-3.06,4.36A3.35,3.35,0,0,0,11,14.35a2.78,2.78,0,0,1-.08,1.81c-.9.89-2.75,1.28-3,2.9a4.68,4.68,0,0,0,.05,2.54c1,2.25,4.85,1.62,7.07,2.55.28.18.31.2.57,1.18.16.65-.72,1.61-1.42,2.39-2.85,2.51-1.57,5.57-.87,9.13a16,16,0,0,0,2.35,6.27A7.27,7.27,0,0,1,17,47.06a14.28,14.28,0,0,1-2.85,8.77c-.8.93-2.58.9-3.43,1.65a1.78,1.78,0,0,0-.52,2.45c1.1,1.52,4.85,1.29,6.4.5S21.2,57.19,22.9,50c1.93-8.11,2.18-8.75,3.91-9.85a4,4,0,0,1,3-.54c-.53.21-1.11.45-1.76.74-2.84,1.25-4.68,6.25-4,9.2a10.55,10.55,0,0,0,3.46,5.27,28.37,28.37,0,0,0-3.76.43l-.71.15c-1.52.39-1.4,1.53-1.52,2.42a2.54,2.54,0,0,0,2.41,2.7H44a.9.9,0,0,0,.28,0l.08,0C50.93,59,56,52.78,56.24,49.32,56.7,42.23,49.48,37.6,50.31,30.48ZM23.5,57.64l0-.29c1-.28,4.52-.7,5.18-.39a1.42,1.42,0,0,0,1.63-.57c.63-1-.3-1.89-1.28-2.8S26.38,51.1,26,49.15c-.49-2.23,1.16-6.19,2.89-6.95a15.47,15.47,0,0,1,4.45-1.49,1,1,0,0,0,.79-1.56.89.89,0,0,0-.55-.4c-2.18-.72-4.61-2.18-7.8-.27-2.46,1.57-2.85,3-4.77,11.07C18.9,57.47,16,59.68,12.13,58.91a7.21,7.21,0,0,0,3.47-1.75A16.05,16.05,0,0,0,18.94,46.9a9.17,9.17,0,0,0-1.6-4.83,14.05,14.05,0,0,1-2.08-5.59c-.16-.83-.32-1.55-.46-2.19-.54-2.5-.67-3.27,0-4.28,1.12-1.48,3.23-3,2.68-5.18-.43-1.63-.71-2-1.65-2.48-1.81-.85-4.61-.67-6-1.44a2.94,2.94,0,0,1,0-1.45c.05-.28.64-.62,1.12-.9A3.75,3.75,0,0,0,13,14a1.51,1.51,0,0,1,0-1.1c.2-.44.53-.57,1.41-.84,3.64-.86,4.53-3.85,4.54-6.94a5.69,5.69,0,0,1,2.43,4.16,6.78,6.78,0,0,1-.65,3.46,1,1,0,0,0,.3,1.39c2.2,1,2.4-4.06,2.35-4.68a5.6,5.6,0,0,1,1.55.92C26.8,12,27.05,15,28,17.31c1.63,4.61,1.41,5.3,6.12,9.9a32.71,32.71,0,0,0,5.09,4,10.25,10.25,0,0,1,3,2.66C43.48,35.56,44,37.06,45,40.05c1,2.48,3.9,15.46-1.22,18.49H24a.61.61,0,0,1-.54-.45C23.47,57.93,23.49,57.78,23.5,57.64Z"/></g></svg>