<?xml version="1.0" encoding="UTF-8" standalone="no"?>
<!DOCTYPE svg PUBLIC "-//W3C//DTD SVG 1.1//EN" "http://www.w3.org/Graphics/SVG/1.1/DTD/svg11.dtd">
<svg width="100%" height="100%" viewBox="0 0 2357 2357" version="1.1" xmlns="http://www.w3.org/2000/svg" xmlns:xlink="http://www.w3.org/1999/xlink" xml:space="preserve" xmlns:serif="http://www.serif.com/" style="fill-rule:evenodd;clip-rule:evenodd;stroke-linejoin:round;stroke-miterlimit:2;">
    <g transform="matrix(1,0,0,1,-5.31128,-2.75904)">
        <path d="M1183.76,2.759C1834.16,2.759 2362.2,530.803 2362.2,1181.21C2362.2,1831.61 1834.16,2359.65 1183.76,2359.65C533.356,2359.65 5.311,1831.61 5.311,1181.21C5.311,530.803 533.356,2.759 1183.76,2.759ZM1608.19,516.416L1833.87,516.416L1338.35,1080.63L1917.28,1846L1462.96,1846L1107.26,1380.89L700.05,1846L474.365,1846L999.328,1242.53L444.927,516.416L910.526,516.416L1231.88,941.293L1608.19,516.416ZM1529.2,1713.53L1654.31,1713.53L844.782,643.977L710.353,643.977L1529.2,1713.53Z"/>
    </g>
</svg>
