<?xml version="1.0" encoding="iso-8859-1"?>
<!-- Generator: Adobe Illustrator 19.0.0, SVG Export Plug-In . SVG Version: 6.00 Build 0)  -->
<svg version="1.1" id="Layer_1" xmlns="http://www.w3.org/2000/svg" xmlns:xlink="http://www.w3.org/1999/xlink" x="0px" y="0px"
	 viewBox="0 0 512.002 512.002" style="enable-background:new 0 0 512.002 512.002;" xml:space="preserve">
<g transform="translate(0 -1)">
	<g>
		<g>
			<path d="M196.647,371.725c-7.341,9.216-5.821,22.637,3.394,29.978c9.216,7.341,22.637,5.821,29.978-3.394
				c35.937-45.114,57.446-45.01,69.66-6.797c3.587,11.223,15.593,17.413,26.816,13.826s17.413-15.593,13.826-26.816
				C316.23,303.15,251.521,302.837,196.647,371.725z"/>
			<path d="M509.984,217.849c-4.096-17.323-13.867-31.829-26.773-39.808c-9.472-5.824-20.203-7.68-30.357-5.333
				c-0.893,0.217-2.297,0.646-3.985,1.199c-18.594-44.893-47.654-77.878-84.582-99.977c-22.528-13.481-46.524-22.008-70.661-26.596
				c-15.426-2.932-28.36-3.844-37.576-3.658c-28.431,0.559-68.63,9.796-109.009,36.052c-46.536,30.259-80.493,77.05-96.621,142.306
				c-5.289-0.828-6.856-0.829-7.752-0.829C17.536,221.204,0,244.714,0,278.356c0,33.621,17.536,57.131,42.667,57.131
				c1.617,0,4.128-0.249,7.112-0.645c6.084,22.505,16.034,43.765,29.761,62.697C115.003,446.405,169.863,470.35,256,470.35
				c82.41,0,138.218-29.267,176.455-81.955c21.878-30.174,34.185-66.248,36.484-103.867c1.169,0.035,2.195,0.052,3.093,0.052
				c4.267,0,5.739-0.363,7.275-0.725C503.904,277.987,517.365,248.995,509.984,217.849z M230.398,90.322
				c12.14-2.823,21.343-3.864,26.058-3.976c0.061-0.001,0.124-0.001,0.186-0.002c1.802-0.026,3.894,0.014,6.419,0.149
				c53.135,51.374,83.898,115.32,77.497,162.762c-33.281-55.595-91.102-111.962-156.012-141.911
				C199.411,99.489,214.904,93.925,230.398,90.322z M397.918,363.342c-30.309,41.764-73.36,64.341-141.918,64.341
				c-73.295,0-115.111-18.252-141.924-55.197c-13.379-18.452-22.196-39.927-26.224-62.755c-0.029-0.888-0.093-1.781-0.236-2.682
				c-2.987-18.773-2.837-37.824,0.427-56.555c0.078-0.45,0.117-0.896,0.166-1.344c0.026-0.145,0.048-0.289,0.075-0.434
				c9.026-48.786,28.219-85.326,55.257-111.801c79.939,26.454,155.019,106.851,177.717,169.984
				c5.575,15.506,25.876,19.107,36.444,6.464c45.306-54.205,29.756-134.737-20.351-205.712c1.677,0.93,3.353,1.887,5.026,2.889
				c32.852,19.659,57.904,50.203,72.549,94.409c0.165,0.91,0.368,1.819,0.658,2.723c3.563,11.093,6.208,21.525,8.128,31.915
				c1.259,6.805,2.069,14.187,2.539,23.211c0.043,0.887,0.158,1.752,0.306,2.607C427.829,301.099,418.014,335.626,397.918,363.342z"
				/>
			<path d="M231.637,219.875c-6.272-15.744-21.653-26.859-39.637-26.859s-33.365,11.115-39.637,26.859
				c-3.008,7.552,2.432,15.808,10.539,15.808h58.197C229.205,235.683,234.645,227.427,231.637,219.875z"/>
			<path d="M213.333,278.35c0-11.776-9.557-21.333-21.333-21.333s-21.333,9.557-21.333,21.333s9.557,21.333,21.333,21.333
				S213.333,290.126,213.333,278.35z"/>
		</g>
	</g>
</g>
<g>
</g>
<g>
</g>
<g>
</g>
<g>
</g>
<g>
</g>
<g>
</g>
<g>
</g>
<g>
</g>
<g>
</g>
<g>
</g>
<g>
</g>
<g>
</g>
<g>
</g>
<g>
</g>
<g>
</g>
</svg>
