<?xml version="1.0" encoding="iso-8859-1"?>
<!-- Generator: Adobe Illustrator 18.0.0, SVG Export Plug-In . SVG Version: 6.00 Build 0)  -->
<!DOCTYPE svg PUBLIC "-//W3C//DTD SVG 1.1//EN" "http://www.w3.org/Graphics/SVG/1.1/DTD/svg11.dtd">
<svg version="1.1" id="Capa_1" xmlns="http://www.w3.org/2000/svg" xmlns:xlink="http://www.w3.org/1999/xlink" x="0px" y="0px"
	 viewBox="0 0 60.002 60.002" style="enable-background:new 0 0 60.002 60.002;" xml:space="preserve">
<g>
	<path d="M59.795,22.342c-0.401-1.698-1.364-3.157-2.576-3.903c-0.811-0.499-1.675-0.662-2.508-0.461
		c-0.189,0.045-0.371,0.114-0.549,0.198c-0.014-0.033-0.027-0.066-0.041-0.099c-0.023-0.054-0.035-0.112-0.067-0.161
		C50.535,9.587,44.182,5.64,38.939,3.777c-0.003-0.002-0.005-0.004-0.008-0.006c-0.153-0.111-0.326-0.156-0.501-0.17
		c-4.362-1.461-7.834-1.5-8.022-1.5c-0.006,0-0.008,0-0.014,0c-0.138,0-1.911,0.018-4.476,0.542c-0.011,0-0.022-0.002-0.033-0.002
		c-0.153,0-0.294,0.04-0.424,0.102c-2.105,0.463-4.674,1.265-7.298,2.646c-0.19,0.045-0.364,0.128-0.495,0.265
		c-2.056,1.138-4.123,2.645-6.007,4.63c-0.085,0.063-0.155,0.135-0.216,0.221c-2.644,2.86-4.896,6.697-6.196,11.833
		c-0.005,0.017-0.01,0.033-0.014,0.05c-0.178,0.708-0.341,1.435-0.482,2.193c-0.015,0.083-0.025,0.166-0.04,0.249
		c-0.254-0.07-0.512-0.118-0.776-0.118C1.73,24.712,0,27.095,0,30.136c0,3.042,1.73,5.425,3.939,5.425
		c0.403,0,0.798-0.103,1.177-0.267c0.701,2.671,1.863,5.179,3.458,7.378c3.194,4.404,9.466,9.605,21.239,9.605
		c0.187,0,0.375-0.001,0.564-0.004c0.514,0.006,1.055-0.003,1.621-0.021v0.649c0,2.757,2.243,5,5,5h1c2.757,0,5-2.243,5-5v-2.908
		c3.751-1.62,6.853-4.074,9.21-7.321c2.881-3.971,4.346-8.946,4.229-14.077c0.035,0.001,0.071,0.014,0.105,0.014
		c0.227,0,0.451-0.025,0.671-0.078C59.363,28.019,60.496,25.3,59.795,22.342z M52.17,18.547c-0.193,0.837-0.348,1.395-0.466,1.744
		c-0.084-0.11-0.168-0.223-0.243-0.323c-0.531-0.711-1.257-1.656-2.255-2.456c-1.22-3.382-3.301-6.619-5.549-9.252
		C47.471,10.746,50.317,14.186,52.17,18.547z M37.863,5.472c4.909,3.619,11.2,12.197,10.39,19.104
		c-0.163,1.39-0.626,2.635-1.361,3.742c0.366-1.674,0.273-3.551-0.306-5.607c-2.038-7.241-9.838-15.362-16-18.611
		C31.318,4.111,34.265,4.266,37.863,5.472z M16,17.277c-0.552,0-1,0.448-1,1s0.448,1,1,1c0.031,0,0.056-0.015,0.086-0.017
		c-0.461,0.444-0.898,0.914-1.297,1.422c-0.001,0.001-0.003,0.003-0.004,0.004c-0.182-0.242-0.459-0.409-0.785-0.409
		c-0.552,0-1,0.448-1,1c0,0.329,0.169,0.607,0.415,0.789c-1.298,1.048-2.802,1.639-4.093,1.543c-0.878-0.072-1.551-0.47-2.032-1.147
		c0.036-0.136,0.073-0.271,0.111-0.405c0.169,0.13,0.37,0.22,0.6,0.22c0.552,0,1-0.448,1-1s-0.448-1-1-1
		c-0.017,0-0.031,0.009-0.048,0.01c0.599-1.722,1.314-3.266,2.122-4.641c0.147,0.369,0.504,0.631,0.926,0.631c0.552,0,1-0.448,1-1
		s-0.448-1-1-1c-0.025,0-0.046,0.012-0.071,0.014c0.38-0.556,0.777-1.076,1.184-1.573c0.164,0.328,0.495,0.559,0.886,0.559
		c0.552,0,1-0.448,1-1c0-0.044-0.02-0.082-0.025-0.124c0.341,0.027,0.684,0.073,1.027,0.115c0,0-0.002,0.006-0.002,0.009
		c0,0.552,0.448,1,1,1c0.444,0,0.808-0.294,0.938-0.695c0.422,0.085,0.843,0.163,1.265,0.269c0.182,0.252,0.463,0.426,0.797,0.426
		c0.142,0,0.276-0.031,0.399-0.085c2.161,0.635,4.3,1.506,6.35,2.564c-3.613-0.184-5.99,0.572-8.469,2.465
		c-0.114,0.087-0.215,0.193-0.326,0.284C16.972,18.43,17,18.358,17,18.277C17,17.725,16.552,17.277,16,17.277z M30.982,16.566
		c-0.026-0.019-0.05-0.037-0.077-0.054c-4.937-3.292-10.756-5.77-16.376-6.317c1.295-1.15,2.652-2.085,4.004-2.842
		c4.234,0.186,19.212,8.688,23.274,17.287c0.808,1.712,1.097,3.268,0.902,4.703c-0.38-1.026-0.962-2.127-1.75-3.291
		C38.735,22.768,35.18,19.378,30.982,16.566z M25.863,4.636c0.008,0,0.014,0.004,0.022,0.004c4.706,0,16.312,9.859,18.774,18.612
		c0.565,2.009,0.588,3.772,0.086,5.286c0.009-1.512-0.35-3.103-1.13-4.752C40.022,16.178,28.068,8.242,21.413,5.98
		C23.016,5.338,24.539,4.915,25.863,4.636z M4.674,33.262c-0.206,0.167-0.456,0.299-0.734,0.299C3.022,33.561,2,32.154,2,30.136
		c0-2.018,1.022-3.424,1.939-3.424c0.167,0,0.335,0.047,0.504,0.139c-0.049,0.531-0.081,1.061-0.096,1.589
		c-0.001,0.044,0,0.088-0.002,0.132c-0.01,0.43-0.008,0.86,0.004,1.287c0.004,0.15,0.009,0.3,0.016,0.449
		c0.016,0.34,0.04,0.678,0.07,1.016c0.014,0.158,0.023,0.315,0.04,0.473c0.047,0.432,0.105,0.862,0.175,1.289
		C4.659,33.144,4.664,33.203,4.674,33.262z M41,52.901c0,1.654-1.346,3-3,3h-1c-1.654,0-3-1.346-3-3v-0.742v-6.057l1.233,0.002
		c0.362,0,0.747,0.001,1.137,0.002c0.109,0.724,0.164,2.211,0.163,4.44v0.165c0,0.553,0.447,1,1,1s1-0.447,1-1v-0.164
		c0-0.9,0.001-2.262-0.067-3.435c-0.019-0.325-0.04-0.668-0.077-1.003c0.966,0.001,1.886,0.001,2.612-0.002v4.708V52.901z
		 M50.591,41.498c-1.976,2.723-4.524,4.841-7.591,6.313v-1.71c0.553,0,1-0.447,1-1s-0.447-1-1-1v-0.012l-1.012,0.012H21
		c-0.553,0-1,0.447-1,1s0.447,1,1,1h11v4.155c-0.568,0.019-1.095,0.024-1.621,0.018c-9.097,0.123-15.87-2.826-20.185-8.775
		c-2.062-2.843-3.329-6.257-3.726-9.868C6.46,31.554,6.459,31.476,6.452,31.4c-0.057-0.571-0.089-1.147-0.102-1.726
		c-0.005-0.251-0.001-0.504,0.003-0.756c0.004-0.405,0.02-0.81,0.046-1.216c0.02-0.299,0.04-0.597,0.071-0.896
		c0.064-0.62,0.138-1.24,0.252-1.86c0.013-0.068,0.029-0.13,0.042-0.197c0.683,0.483,1.491,0.781,2.394,0.855
		c0.152,0.013,0.307,0.019,0.462,0.019c2.348,0,4.947-1.415,6.742-3.704c0.624-0.794,1.341-1.502,2.132-2.105
		c2.91-2.226,5.628-2.581,11.552-1.495c3.889,2.636,7.184,5.795,9.259,8.857c1.621,2.395,2.266,4.483,1.767,5.732
		c-0.006,0.015-0.003,0.031-0.008,0.046c-0.008,0.023-0.018,0.044-0.024,0.067c-0.012,0.046-0.011,0.093-0.016,0.141
		c-0.005,0.042-0.021,0.082-0.02,0.125c0,0.018,0.005,0.035,0.006,0.052c0.001,0.021,0.001,0.04,0.003,0.061
		c0.006,0.05,0.028,0.096,0.041,0.145c0.002,0.007,0.003,0.015,0.005,0.023c0.01,0.032,0.006,0.065,0.019,0.097
		c0.001,0.002,0.002,0.003,0.003,0.004c0.005,0.011,0.013,0.02,0.018,0.031c0.001,0.003,0.004,0.006,0.005,0.009
		c0.01,0.021,0.02,0.041,0.031,0.061c0.006,0.01,0.005,0.022,0.012,0.032c0.015,0.025,0.037,0.043,0.054,0.066
		c0.023,0.031,0.046,0.062,0.072,0.09c0.003,0.003,0.004,0.006,0.007,0.009c0.009,0.009,0.014,0.02,0.024,0.029
		c0.015,0.014,0.032,0.025,0.047,0.039c0.006,0.005,0.008,0.013,0.015,0.018c0.012,0.01,0.027,0.013,0.039,0.022
		c0.026,0.02,0.051,0.04,0.079,0.056c0.036,0.022,0.074,0.039,0.113,0.056c0.012,0.005,0.02,0.016,0.033,0.021
		c0.006,0.002,0.013,0.001,0.019,0.004c0.014,0.006,0.028,0.01,0.043,0.015c0.014,0.004,0.026,0.009,0.04,0.013
		c0.085,0.024,0.173,0.038,0.262,0.039c0.002,0,0.004,0.001,0.006,0.001h0c0,0,0,0,0,0H42c0,0,0,0,0,0
		c0.094,0,0.188-0.015,0.28-0.042c0.023-0.007,0.043-0.019,0.065-0.027c0.013-0.005,0.027-0.002,0.039-0.008
		c0.01-0.004,0.019-0.009,0.029-0.014c0.004-0.002,0.008-0.004,0.012-0.006c4.618-1.936,7.321-5.174,7.814-9.372
		c0.122-1.043,0.104-2.105-0.022-3.174c0.489,0.621,0.971,1.099,1.619,1.099c0.098,0,0.2-0.012,0.306-0.034
		c0.48-0.103,0.828-0.426,1.123-0.988c0.073,0.248,0.164,0.493,0.231,0.742c0.012,0.045,0.024,0.09,0.035,0.135
		c0.204,0.771,0.383,1.552,0.531,2.354c0.122,0.659,0.204,1.32,0.268,1.979c0.012,0.126,0.029,0.249,0.039,0.376
		C54.791,32.466,53.464,37.537,50.591,41.498z M56.751,26.586c-0.135,0.031-0.281,0.031-0.436-0.001
		c-0.004-0.037-0.011-0.071-0.015-0.108c-0.068-0.632-0.153-1.264-0.27-1.896c-0.143-0.772-0.31-1.511-0.492-2.231
		c-0.02-0.078-0.044-0.154-0.064-0.231c-0.181-0.694-0.38-1.363-0.595-2.01c-0.005-0.014-0.008-0.029-0.013-0.043
		c0.101-0.07,0.204-0.117,0.31-0.143c0.378-0.089,0.75,0.069,0.994,0.219c0.758,0.467,1.401,1.486,1.68,2.661
		C58.314,24.767,57.645,26.373,56.751,26.586z"/>
	<circle cx="11" cy="21.277" r="1"/>
	<circle cx="10" cy="18.277" r="1"/>
	<circle cx="13" cy="18.277" r="1"/>
	<circle cx="20" cy="15.277" r="1"/>
	<circle cx="17" cy="15.277" r="1"/>
	<circle cx="14" cy="15.277" r="1"/>
	<path d="M32.239,26.451c-2.22,2.602-4.519,3.894-6.871,3.813c-3.779-0.116-6.541-3.728-6.568-3.764
		c-0.33-0.44-0.958-0.529-1.399-0.2c-0.441,0.331-0.531,0.956-0.202,1.398c0.135,0.18,3.347,4.409,8.093,4.563
		c0.09,0.003,0.179,0.005,0.269,0.005c2.884,0,5.643-1.52,8.201-4.518c0.358-0.421,0.309-1.052-0.111-1.41
		C33.23,25.982,32.6,26.03,32.239,26.451z"/>
</g>
<g>
</g>
<g>
</g>
<g>
</g>
<g>
</g>
<g>
</g>
<g>
</g>
<g>
</g>
<g>
</g>
<g>
</g>
<g>
</g>
<g>
</g>
<g>
</g>
<g>
</g>
<g>
</g>
<g>
</g>
</svg>
