<?xml version="1.0" encoding="iso-8859-1"?>
<!-- Generator: Adobe Illustrator 19.0.0, SVG Export Plug-In . SVG Version: 6.00 Build 0)  -->
<svg version="1.1" id="Layer_1" xmlns="http://www.w3.org/2000/svg" xmlns:xlink="http://www.w3.org/1999/xlink" x="0px" y="0px"
	 viewBox="0 0 512 512" style="enable-background:new 0 0 512 512;" xml:space="preserve">
<g>
	<g>
		<path d="M459.22,184.733V77.789L348.234,0H52.78v184.733H26.39v205.872h26.39V512H459.22V390.604h26.39V184.733H459.22z
			 M353.658,23.189l72.216,50.704h-72.216V23.189z M68.642,15.861h269.154v73.893h105.562v94.978H68.642V15.861z M443.358,496.139
			H68.642V390.604h374.716V496.139z M469.748,374.743H42.252V200.594h427.497V374.743z"/>
	</g>
</g>
<g>
	<g>
		<rect x="435.459" y="216.403" width="21.112" height="15.861"/>
	</g>
</g>
<g>
	<g>
		<rect x="435.459" y="343.072" width="21.112" height="15.861"/>
	</g>
</g>
<g>
	<g>
		<rect x="55.43" y="343.072" width="21.112" height="15.861"/>
	</g>
</g>
<g>
	<g>
		<rect x="55.43" y="216.403" width="21.112" height="15.861"/>
	</g>
</g>
<g>
	<g>
		<path d="M366.84,242.818v-15.861h-68.615c-8.579,0-13.208,6.806-13.208,13.208v110.84h15.861v-60.684h65.962v-15.861h-65.962
			v-31.641H366.84z"/>
	</g>
</g>
<g>
	<g>
		<path d="M176.829,295.599h34.293v7.855c-0.038,2.974-1.322,29.064-34.293,29.064c-27.989,0-34.292-9.762-34.294-13.182V256.1
			c0.095-2.096,1.889-18.561,34.294-18.561c32.634,0,34.222,16.699,34.296,18.603l-0.001-0.144h15.861
			c0-0.96-0.197-9.626-7.016-18.15c-8.585-10.731-23.098-16.171-43.139-16.171c-20.04,0-34.555,5.441-43.14,16.171
			c-6.819,8.524-7.016,17.19-7.016,18.15v63.337c-0.001,2.974,1.406,29.044,50.155,29.044c49.582,0,50.155-44.429,50.155-44.877
			v-23.766h-50.155V295.599z"/>
	</g>
</g>
<g>
	<g>
		<rect x="248.072" y="224.333" width="15.861" height="126.669"/>
	</g>
</g>
<g>
	<g>
		<path d="M89.727,36.947V158.37h163.647V36.947H89.727z M105.588,142.507v-14.215l40.05-26.7l77.739,40.915H105.588z
			 M237.514,132.024l-44.959-23.662l21.47-12.268l23.489,11.744V132.024z M237.514,90.104L213.526,78.11l-37.614,21.493
			l-31.23-16.437l-39.094,26.063V52.808h131.926V90.104z"/>
	</g>
</g>
<g>
</g>
<g>
</g>
<g>
</g>
<g>
</g>
<g>
</g>
<g>
</g>
<g>
</g>
<g>
</g>
<g>
</g>
<g>
</g>
<g>
</g>
<g>
</g>
<g>
</g>
<g>
</g>
<g>
</g>
</svg>
