<?xml version="1.0" encoding="UTF-8" standalone="no"?> <svg xmlns="http://www.w3.org/2000/svg" viewBox="0 0 64 64"><g id="Layer_60" data-name="Layer 60"><path d="M57.1,52.63H38.45V11.37H50.2V22.74c-6.69,1.34-5.87,11.05,1,11.2,6.87-.15,7.68-9.86,1-11.2V10.9A4.18,4.18,0,0,0,50.31,3H13.69a4.21,4.21,0,1,0,.67,8.37V19.1a4.35,4.35,0,1,0,2,0V11.37h9.19V52.63H6.9A3.9,3.9,0,0,0,3,56.52V60a1,1,0,0,0,1,1H60a1,1,0,0,0,1-1V56.52A3.9,3.9,0,0,0,57.1,52.63ZM17.72,23.33a2.36,2.36,0,0,1-4.72,0A2.36,2.36,0,0,1,17.72,23.33Zm9.83-1.78,8.9-8.91v6l-8.9,8.9Zm0,8.83,8.9-8.9v6l-8.9,8.9Zm0,8.83,8.9-8.9v6l-8.9,8.9Zm8.9,13.42H31.81L36.45,48ZM54.84,28.3c-.12,4.81-7.17,4.8-7.29,0A3.65,3.65,0,0,1,54.84,28.3ZM11.5,7.19A2.19,2.19,0,0,1,13.69,5H50.31a2.19,2.19,0,0,1,0,4.37H13.69A2.19,2.19,0,0,1,11.5,7.19Zm23.39,4.18-7.34,7.35V11.37ZM27.55,48l8.9-8.9v6L29,52.63H27.55ZM59,59H5V56.52a1.9,1.9,0,0,1,1.9-1.89H57.1A1.9,1.9,0,0,1,59,56.52Z"/></g></svg>